<svg width="150" height="150" viewBox="0 0 150 150" fill="none" xmlns="http://www.w3.org/2000/svg">
<path d="M147.656 22.4189H2.34375V119.971H147.656V22.4189Z" fill="black"/>
<path d="M3 22V119.552H63.9375V138.133H92.0625V119.552H148.312V22H3ZM141.281 112.584H10.0312V28.968H141.281V112.584Z" fill="black"/>
<path d="M91.4062 119.971H63.2812V126.939H91.4062V119.971Z" fill="#231F20"/>
<path d="M150 122.294V20.0963H0V122.294H60.9375V136.23H56.25V140.875H98.4375V136.23H93.75V122.294H150ZM4.6875 117.648V24.7416H145.312V117.648H4.6875ZM89.0625 136.23H65.625V122.294H89.0625V136.23Z" fill="black"/>
<path d="M94 137V52H77.5H61V137H94Z" fill="#484848"/>
</svg>