<svg width="59" height="22" viewBox="0 0 59 22" fill="none" xmlns="http://www.w3.org/2000/svg">
<path d="M1.456 21.272C0.912 21.272 0.64 20.904 0.64 20.168V1.512C0.64 0.754666 0.922667 0.375999 1.488 0.375999C2.04267 0.375999 2.32 0.76 2.32 1.528V17.896L13.68 0.983999C13.9573 0.578666 14.2827 0.375999 14.656 0.375999C15.168 0.375999 15.424 0.754666 15.424 1.512V20.168C15.424 20.904 15.1467 21.272 14.592 21.272C14.0267 21.272 13.744 20.9093 13.744 20.184V3.64L2.208 20.888C2.112 21.0267 2.00533 21.1227 1.888 21.176C1.78133 21.24 1.63733 21.272 1.456 21.272ZM21.3425 21C20.7238 21 20.4145 20.6853 20.4145 20.056V19.448C20.4145 18.84 20.7238 18.536 21.3425 18.536H21.9345C22.5425 18.536 22.8465 18.84 22.8465 19.448V20.056C22.8465 20.6853 22.5425 21 21.9345 21H21.3425ZM36.7068 21.272C36.1414 21.272 35.8588 20.904 35.8588 20.168V1.512C35.8588 0.754666 36.1201 0.375999 36.6428 0.375999C37.0054 0.375999 37.3254 0.578666 37.6028 0.983999L43.5708 9.88L49.5708 0.983999C49.8481 0.578666 50.1628 0.375999 50.5148 0.375999C51.0481 0.375999 51.3148 0.754666 51.3148 1.512V20.168C51.3148 20.904 51.0374 21.272 50.4827 21.272C49.9174 21.272 49.6348 20.8933 49.6348 20.136V3.592L44.2908 11.64C44.1628 11.8427 44.0454 11.976 43.9388 12.04C43.8428 12.0933 43.7308 12.12 43.6028 12.12C43.4854 12.12 43.3681 12.0933 43.2508 12.04C43.1441 11.976 43.0268 11.8427 42.8988 11.64L37.5388 3.592V20.136C37.5388 20.8933 37.2614 21.272 36.7068 21.272ZM57.2488 21C56.6301 21 56.3207 20.6853 56.3207 20.056V19.448C56.3207 18.84 56.6301 18.536 57.2488 18.536H57.8408C58.4488 18.536 58.7528 18.84 58.7528 19.448V20.056C58.7528 20.6853 58.4488 21 57.8408 21H57.2488Z" fill="black"/>
</svg>
