<svg width="150" height="150" viewBox="0 0 150 150" fill="none" xmlns="http://www.w3.org/2000/svg">
<path d="M147.656 21.0938H2.34375V119.531H147.656V21.0938Z" fill="#3D3935"/>
<path d="M2.34375 21.0938V119.531H63.2812V138.281H91.4062V119.531H147.656V21.0938H2.34375ZM140.625 112.5H9.375V28.125H140.625V112.5Z" fill="#A3AEB5"/>
<path d="M91.4062 119.531H63.2812V126.562H91.4062V119.531Z" fill="#788287"/>
<path d="M150 121.875V18.75H0V121.875H60.9375V135.938H56.25V140.625H98.4375V135.938H93.75V121.875H150ZM4.6875 117.188V23.4375H145.312V117.188H4.6875ZM89.0625 135.938H65.625V121.875H89.0625V135.938Z" fill="#231F20"/>
<path d="M42.1875 46.875H28.125V42.1875H42.1875V46.875ZM32.8125 51.5625V56.25H46.875V51.5625H32.8125ZM32.8125 84.375H46.875V79.6875H32.8125V84.375ZM28.125 93.75H42.1875V89.0625H28.125V93.75Z" fill="#A795C5"/>
<path d="M103.125 60.9375V65.625H37.5V60.9375H103.125ZM37.5 75H103.125V70.3125H37.5V75Z" fill="#93B46F"/>
<path d="M79.6875 56.25H51.5625V51.5625H79.6875V56.25ZM98.4375 42.1875H46.875V46.875H98.4375V42.1875Z" fill="#5D82BE"/>
</svg>
